<?xml version="1.0" encoding="UTF-8" standalone="no"?>
<svg
   xmlns:dc="http://purl.org/dc/elements/1.1/"
   xmlns:cc="http://creativecommons.org/ns#"
   xmlns:rdf="http://www.w3.org/1999/02/22-rdf-syntax-ns#"
   xmlns:svg="http://www.w3.org/2000/svg"
   xmlns="http://www.w3.org/2000/svg"
   xmlns:sodipodi="http://sodipodi.sourceforge.net/DTD/sodipodi-0.dtd"
   xmlns:inkscape="http://www.inkscape.org/namespaces/inkscape"
   sodipodi:docname="Desain Logo Diajars Text, Wigunadz.svg"
   inkscape:version="1.0 (4035a4fb49, 2020-05-01)"
   id="svg3093"
   version="1.1"
   viewBox="0 0 297 210"
   height="210mm"
   width="297mm">
  <defs
     id="defs3087" />
  <sodipodi:namedview
     inkscape:window-maximized="1"
     inkscape:window-y="-8"
     inkscape:window-x="1358"
     inkscape:window-height="1027"
     inkscape:window-width="1920"
     showgrid="false"
     inkscape:document-rotation="0"
     inkscape:current-layer="layer1"
     inkscape:document-units="mm"
     inkscape:cy="345.32619"
     inkscape:cx="400"
     inkscape:zoom="0.5589876"
     inkscape:pageshadow="2"
     inkscape:pageopacity="0.0"
     borderopacity="1.0"
     bordercolor="#666666"
     pagecolor="#ffffff"
     id="base" />
  <metadata
     id="metadata3090">
    <rdf:RDF>
      <cc:Work
         rdf:about="">
        <dc:format>image/svg+xml</dc:format>
        <dc:type
           rdf:resource="http://purl.org/dc/dcmitype/StillImage" />
        <dc:title></dc:title>
      </cc:Work>
    </rdf:RDF>
  </metadata>
  <g
     id="layer1"
     inkscape:groupmode="layer"
     inkscape:label="Lapis 1">
    <g
       id="g2999"
       transform="matrix(4.4346934,0,0,4.4346934,-352.2086,-827.74948)">
      <path
         style="opacity:0.997647;fill:none;fill-opacity:1;stroke:#7d0d28;stroke-width:2.24487;stroke-linecap:round;stroke-linejoin:round;stroke-miterlimit:4;stroke-dasharray:none;stroke-opacity:1"
         d="m 80.769114,216.76545 c 0,0 21.725316,-5.78485 64.276076,-1.67119"
         id="path1791" />
      <path
         id="path1793"
         style="font-style:normal;font-variant:normal;font-weight:normal;font-stretch:normal;font-size:13.7782px;line-height:1.15;font-family:Chewy;-inkscape-font-specification:'Chewy, Normal';font-variant-ligatures:normal;font-variant-caps:normal;font-variant-numeric:normal;font-variant-east-asian:normal;letter-spacing:-0.344456px;fill:#b0052e;fill-opacity:1;stroke-width:0.552328"
         d="m 95.772106,202.04277 q 0,1.89862 -0.776709,3.66779 -0.776709,1.7476 -2.092797,3.10684 -1.294515,1.35923 -3.042108,2.17909 -1.726019,0.79829 -3.646214,0.79829 h -0.04315 q -0.388352,0 -0.647256,-0.34521 -0.237328,-0.36677 -0.409929,-0.90616 -0.172602,-0.53938 -0.258903,-1.20821 -0.0863,-0.66883 -0.129449,-1.29451 -0.04315,-0.64726 -0.04315,-1.14349 0,-0.51781 0,-0.77671 0,-0.73356 0.02158,-1.44554 0.02158,-0.73356 0.06473,-1.46711 0,-0.23733 0.02158,-0.69041 0.04315,-0.47466 0.0863,-1.05719 0.04315,-0.58253 0.107882,-1.20821 0.06473,-0.64726 0.129449,-1.18664 0.0863,-0.56096 0.151031,-0.97089 0.0863,-0.4315 0.194177,-0.58253 0.280478,-0.47465 0.863009,-0.84143 0.582532,-0.36678 1.251364,-0.60411 0.690408,-0.23733 1.380815,-0.3452 0.711983,-0.12945 1.229788,-0.12945 1.423965,0 2.459578,0.53938 1.057185,0.51781 1.747593,1.42397 0.711983,0.88458 1.035611,2.04964 0.345203,1.16507 0.345203,2.43801 z m -3.62464,0.62568 q 0,-0.47465 -0.172601,-0.97088 -0.172602,-0.49623 -0.49623,-0.90616 -0.302054,-0.40993 -0.755134,-0.64726 -0.431504,-0.2589 -0.970885,-0.2589 -0.45308,0 -0.927735,0.21575 -0.107882,0.0647 -0.194177,0.40993 -0.0863,0.32363 -0.151031,0.79828 -0.04315,0.47466 -0.0863,1.03562 -0.04315,0.56095 -0.06473,1.07876 0,0.49623 -0.02158,0.88458 0,0.38836 0,0.51781 0,0.21575 0,0.64726 0,0.40992 0.02158,0.81985 0.04315,0.40993 0.0863,0.71199 0.04315,0.30205 0.151031,0.30205 0.647257,0 1.272939,-0.49623 0.647256,-0.51781 1.165063,-1.25136 0.517804,-0.73356 0.819858,-1.53185 0.323628,-0.79828 0.323628,-1.35924 z" />
      <path
         id="path1795"
         style="font-style:normal;font-variant:normal;font-weight:normal;font-stretch:normal;font-size:13.7782px;line-height:1.15;font-family:Chewy;-inkscape-font-specification:'Chewy, Normal';font-variant-ligatures:normal;font-variant-caps:normal;font-variant-numeric:normal;font-variant-east-asian:normal;letter-spacing:-0.344456px;fill:#b0052e;fill-opacity:1;stroke-width:0.552328"
         d="m 99.750576,196.69211 q 0,0.30206 -0.172601,0.53939 -0.151032,0.23732 -0.40993,0.4315 -0.258902,0.1726 -0.560955,0.28048 -0.302054,0.0863 -0.560956,0.0863 -0.431506,0 -0.755134,-0.21576 -0.323628,-0.21575 -0.323628,-0.66883 0,-0.32363 0.151031,-0.56095 0.172602,-0.25891 0.409929,-0.40993 0.237328,-0.17261 0.539381,-0.25891 0.302054,-0.0863 0.582531,-0.0863 0.409931,0 0.755134,0.19418 0.345203,0.19418 0.345203,0.66883 z m 0.172603,7.33558 q 0,0.30206 0,0.64726 0,0.32363 -0.02158,0.62568 -0.02158,0.36678 -0.02158,0.99246 0,0.60411 -0.04315,1.31609 -0.04315,0.71199 -0.151032,1.44554 -0.0863,0.73356 -0.302053,1.33767 -0.215753,0.6041 -0.582532,0.99246 -0.345203,0.36678 -0.884584,0.38835 -0.40993,0.0216 -0.690408,-0.32363 -0.280477,-0.3452 -0.474655,-0.88458 -0.172602,-0.56096 -0.258903,-1.22979 -0.0863,-0.69041 -0.129449,-1.31609 -0.04315,-0.64725 -0.04315,-1.18664 0,-0.53938 0,-0.79828 0,-0.3452 0,-0.97089 0,-0.64725 0.04315,-1.38081 0.04315,-0.73356 0.151032,-1.48869 0.129449,-0.75513 0.345205,-1.38082 0.237327,-0.62568 0.604105,-1.01403 0.36678,-0.38836 0.927736,-0.38836 0.582532,0 0.884584,0.58254 0.302053,0.58253 0.45308,1.35923 0.151032,0.77671 0.172602,1.55342 0.02158,0.75514 0.02158,1.12191 z" />
      <path
         id="path1797"
         style="font-style:normal;font-variant:normal;font-weight:normal;font-stretch:normal;font-size:13.7782px;line-height:1.15;font-family:Chewy;-inkscape-font-specification:'Chewy, Normal';font-variant-ligatures:normal;font-variant-caps:normal;font-variant-numeric:normal;font-variant-east-asian:normal;letter-spacing:-0.344456px;fill:#b0052e;fill-opacity:1;stroke-width:0.552328"
         d="m 110.07217,208.70952 q 0,0.38835 -0.0431,1.01403 -0.0216,0.62569 -0.17261,1.22979 -0.15103,0.58253 -0.47465,1.01404 -0.32363,0.4315 -0.90616,0.4315 -0.79828,0 -1.22979,-0.5178 -0.4315,-0.51781 -0.40993,-1.29452 -0.69041,0.60411 -1.57499,0.94931 -0.86301,0.34521 -1.76917,0.34521 -0.62568,0 -1.18664,-0.30205 -0.56095,-0.30206 -0.99246,-0.77671 -0.4315,-0.47466 -0.69041,-1.05719 -0.2589,-0.60411 -0.2589,-1.18664 0,-1.03561 0.62568,-1.81232 0.64726,-0.77671 1.575,-1.31609 0.92773,-0.56095 1.96334,-0.88458 1.05719,-0.32363 1.87705,-0.43151 0,-0.10788 0,-0.19417 0.0216,-0.0863 0.0216,-0.19418 0,-0.66883 -0.36678,-1.07876 -0.36678,-0.40993 -1.03561,-0.40993 -0.53939,0 -0.92774,0.19418 -0.38835,0.1726 -0.73356,0.40993 -0.3452,0.21575 -0.6904,0.40992 -0.34521,0.17261 -0.77671,0.17261 -0.47466,0 -0.81986,-0.30206 -0.32363,-0.30205 -0.32363,-0.7767 0,-0.71199 0.40993,-1.29452 0.43151,-0.58253 1.05719,-0.97088 0.64725,-0.40993 1.38081,-0.62569 0.75514,-0.23732 1.38082,-0.23732 0.58253,0 1.16506,0.15103 0.58253,0.12945 1.10033,0.4315 0.51781,0.28048 0.92774,0.71199 0.4315,0.40993 0.69041,0.97088 0.38835,0.79828 0.62568,1.70445 0.23733,0.88458 0.36678,1.83389 0.12945,0.92773 0.1726,1.87705 0.0431,0.92773 0.0431,1.81231 z m -3.45204,-0.69041 -0.0647,-1.46711 q -0.0432,0 -0.0863,0 -0.0431,-0.0216 -0.0863,-0.0216 -0.28048,0 -0.71198,0.15103 -0.40993,0.12945 -0.79829,0.38835 -0.38835,0.23733 -0.66883,0.53939 -0.2589,0.30205 -0.2589,0.62568 0,0.30205 0.21575,0.40993 0.21575,0.10788 0.49623,0.10788 0.47465,0 1.01404,-0.23733 0.53938,-0.2589 0.94931,-0.49623 z" />
      <path
         id="path1799"
         style="font-style:normal;font-variant:normal;font-weight:normal;font-stretch:normal;font-size:13.7782px;line-height:1.15;font-family:Chewy;-inkscape-font-specification:'Chewy, Normal';font-variant-ligatures:normal;font-variant-caps:normal;font-variant-numeric:normal;font-variant-east-asian:normal;letter-spacing:-0.344456px;fill:#b0052e;fill-opacity:1;stroke-width:0.552328"
         d="m 114.50372,196.90787 q 0,0.30205 -0.1726,0.56095 -0.17261,0.23733 -0.43151,0.40993 -0.2589,0.1726 -0.56095,0.28048 -0.30206,0.0863 -0.56096,0.0863 -0.43151,0 -0.75513,-0.21575 -0.32363,-0.21576 -0.32363,-0.66883 0,-0.32363 0.15103,-0.56096 0.1726,-0.2589 0.40993,-0.40993 0.2589,-0.1726 0.53938,-0.2589 0.30205,-0.0863 0.58253,-0.0863 0.40993,0 0.75513,0.21575 0.36678,0.19418 0.36678,0.64726 z m 0.40993,9.36365 q 0,1.01403 -0.0647,2.2654 -0.0432,1.22979 -0.25891,2.48115 -0.19417,1.25136 -0.62568,2.37327 -0.4315,1.12192 -1.20821,1.87705 -0.4315,0.40993 -1.01404,0.86301 -0.58253,0.45308 -1.25136,0.84143 -0.64726,0.38836 -1.31609,0.62568 -0.66883,0.25891 -1.27294,0.25891 -0.6904,0 -1.01403,-0.38836 -0.34521,-0.36678 -0.34521,-1.03561 0,-0.6904 0.36678,-1.03561 0.36678,-0.3452 0.90616,-0.6041 0.53938,-0.25891 1.18664,-0.58254 0.62568,-0.30205 1.16506,-0.92773 0.53938,-0.62568 0.90616,-1.68287 0.36678,-1.07876 0.36678,-2.82636 0,-1.10033 -0.0431,-2.15752 -0.0431,-1.05718 -0.12945,-2.15752 -0.0432,-0.62568 -0.0863,-1.25136 -0.0431,-0.64726 -0.0431,-1.27294 0,-0.38836 0.10788,-0.81986 0.10789,-0.43151 0.32363,-0.77671 0.21576,-0.36678 0.53938,-0.58253 0.34521,-0.23733 0.81986,-0.23733 0.53938,0 0.88459,0.40993 0.36678,0.40993 0.58253,1.05719 0.23733,0.62568 0.32363,1.42396 0.10788,0.77671 0.15103,1.53184 0.0431,0.73356 0.0431,1.35924 0,0.62568 0,0.97089 z" />
      <path
         id="path1801"
         style="font-style:normal;font-variant:normal;font-weight:normal;font-stretch:normal;font-size:13.7782px;line-height:1.15;font-family:Chewy;-inkscape-font-specification:'Chewy, Normal';font-variant-ligatures:normal;font-variant-caps:normal;font-variant-numeric:normal;font-variant-east-asian:normal;letter-spacing:-0.344456px;fill:#b0052e;fill-opacity:1;stroke-width:0.552328"
         d="m 125.27839,208.70952 q 0,0.38835 -0.0431,1.01403 -0.0216,0.62569 -0.1726,1.22979 -0.15103,0.58253 -0.47466,1.01404 -0.32363,0.4315 -0.90616,0.4315 -0.79828,0 -1.22979,-0.5178 -0.4315,-0.51781 -0.40993,-1.29452 -0.6904,0.60411 -1.57499,0.94931 -0.86301,0.34521 -1.76917,0.34521 -0.62568,0 -1.18664,-0.30205 -0.56095,-0.30206 -0.99246,-0.77671 -0.4315,-0.47466 -0.6904,-1.05719 -0.25891,-0.60411 -0.25891,-1.18664 0,-1.03561 0.62568,-1.81232 0.64726,-0.77671 1.575,-1.31609 0.92773,-0.56095 1.96334,-0.88458 1.05719,-0.32363 1.87705,-0.43151 0,-0.10788 0,-0.19417 0.0216,-0.0863 0.0216,-0.19418 0,-0.66883 -0.36678,-1.07876 -0.36678,-0.40993 -1.03561,-0.40993 -0.53938,0 -0.92773,0.19418 -0.38836,0.1726 -0.73356,0.40993 -0.3452,0.21575 -0.69041,0.40992 -0.3452,0.17261 -0.77671,0.17261 -0.47465,0 -0.81986,-0.30206 -0.32363,-0.30205 -0.32363,-0.7767 0,-0.71199 0.40993,-1.29452 0.43151,-0.58253 1.05719,-0.97088 0.64726,-0.40993 1.38082,-0.62569 0.75513,-0.23732 1.38081,-0.23732 0.58253,0 1.16506,0.15103 0.58254,0.12945 1.10034,0.4315 0.51781,0.28048 0.92774,0.71199 0.4315,0.40993 0.6904,0.97088 0.38836,0.79828 0.62569,1.70445 0.23732,0.88458 0.36677,1.83389 0.12945,0.92773 0.17261,1.87705 0.0431,0.92773 0.0431,1.81231 z m -3.45204,-0.69041 -0.0647,-1.46711 q -0.0432,0 -0.0863,0 -0.0431,-0.0216 -0.0863,-0.0216 -0.28048,0 -0.71198,0.15103 -0.40993,0.12945 -0.79829,0.38835 -0.38835,0.23733 -0.66883,0.53939 -0.2589,0.30205 -0.2589,0.62568 0,0.30205 0.21575,0.40993 0.21575,0.10788 0.49623,0.10788 0.47466,0 1.01404,-0.23733 0.53938,-0.2589 0.94931,-0.49623 z" />
      <path
         id="path1803"
         style="font-style:normal;font-variant:normal;font-weight:normal;font-stretch:normal;font-size:13.7782px;line-height:1.15;font-family:Chewy;-inkscape-font-specification:'Chewy, Normal';font-variant-ligatures:normal;font-variant-caps:normal;font-variant-numeric:normal;font-variant-east-asian:normal;letter-spacing:-0.344456px;fill:#b0052e;fill-opacity:1;stroke-width:0.552328"
         d="m 133.52875,203.68249 q -0.30205,0.0216 -0.5178,-0.0431 -0.21575,-0.0863 -0.43151,-0.1726 -0.19417,-0.0863 -0.38835,-0.15103 -0.19418,-0.0863 -0.4315,-0.0647 -0.43151,0.0216 -0.77671,0.23732 -0.32363,0.21576 -0.60411,0.53938 -0.2589,0.32363 -0.45308,0.73356 -0.19418,0.38836 -0.30205,0.77671 -0.0647,0.2589 -0.10788,0.79828 -0.0216,0.51781 -0.0216,1.12192 -0.0216,0.62568 -0.0216,1.18663 0,0.56096 -0.0431,0.88459 -0.0216,0.3452 -0.10788,0.81986 -0.0863,0.45308 -0.28048,0.86301 -0.1726,0.40993 -0.47466,0.6904 -0.30205,0.28048 -0.7767,0.28048 -0.36678,0 -0.64726,-0.21575 -0.2589,-0.21575 -0.45308,-0.56096 -0.1726,-0.36678 -0.30205,-0.84143 -0.10788,-0.47466 -0.17261,-0.97089 -0.0647,-0.5178 -0.10788,-1.03561 -0.0216,-0.5178 -0.0431,-0.97088 0,-0.47466 0,-0.86301 0.0216,-0.38836 0.0216,-0.62568 -0.0216,-0.75514 -0.0863,-1.51027 -0.0431,-0.77671 -0.0431,-1.53184 0,-0.47466 0.0431,-1.05719 0.0431,-0.58253 0.23732,-1.07876 0.19418,-0.51781 0.56096,-0.86301 0.38835,-0.3452 1.05719,-0.3452 0.36677,0 0.62568,0.23733 0.2589,0.23732 0.40993,0.58253 0.1726,0.3452 0.2589,0.73355 0.0863,0.38836 0.10788,0.71199 0.51781,-0.84144 1.16507,-1.35924 0.64725,-0.53938 1.68286,-0.58253 0.51781,-0.0216 1.01404,0.10788 0.51781,0.10788 0.92773,0.38835 0.43151,0.25891 0.69041,0.69041 0.28048,0.4315 0.30205,1.01404 0.0431,0.6904 -0.40992,1.05718 -0.45309,0.36678 -1.10034,0.38836 z" />
      <path
         id="path1805"
         style="font-style:normal;font-variant:normal;font-weight:normal;font-stretch:normal;font-size:13.7782px;line-height:1.15;font-family:Chewy;-inkscape-font-specification:'Chewy, Normal';font-variant-ligatures:normal;font-variant-caps:normal;font-variant-numeric:normal;font-variant-east-asian:normal;letter-spacing:-0.344456px;fill:#b0052e;fill-opacity:1;stroke-width:0.552328"
         d="m 141.13187,199.88525 q 0,0.62568 -0.43151,0.92773 -0.40993,0.30206 -0.92773,0.58254 -0.51781,0.2589 -0.94931,0.62568 -0.40993,0.36678 -0.40993,1.10033 0,0.38836 0.1726,0.66884 0.19418,0.28047 0.45308,0.5178 0.28048,0.21575 0.60411,0.45308 0.32362,0.23733 0.58253,0.53938 0.28048,0.30206 0.45308,0.73356 0.19417,0.4315 0.19417,1.05719 0,0.90616 -0.47465,1.79074 -0.45308,0.86301 -1.18664,1.55342 -0.71198,0.66883 -1.61814,1.07876 -0.90616,0.40993 -1.79075,0.40993 -0.36677,0 -0.73355,-0.0647 -0.36678,-0.0431 -0.66883,-0.19418 -0.28048,-0.15103 -0.47466,-0.40993 -0.19418,-0.28047 -0.19418,-0.71198 0,-0.6041 0.23733,-0.92773 0.23733,-0.34521 0.60411,-0.53938 0.36678,-0.19418 0.77671,-0.30206 0.4315,-0.10788 0.79828,-0.2589 0.36678,-0.1726 0.60411,-0.4315 0.23732,-0.25891 0.23732,-0.73356 0,-0.45308 -0.36678,-0.92774 -0.3452,-0.49623 -0.7767,-1.03561 -0.43151,-0.56096 -0.79829,-1.18664 -0.3452,-0.62568 -0.3452,-1.38081 0,-0.92774 0.36678,-1.70445 0.38835,-0.79828 1.01403,-1.38081 0.64726,-0.58253 1.46712,-0.90616 0.81986,-0.3452 1.72602,-0.3452 0.3452,0 0.66883,0.0647 0.3452,0.0647 0.60411,0.23733 0.2589,0.15103 0.40993,0.4315 0.1726,0.2589 0.1726,0.66883 z" />
      <path
         d="m 89.868605,218.62337 q 0,0.14662 -0.105164,0.25499 -0.09815,0.10838 -0.238371,0.1785 -0.126196,0.0701 -0.259404,0.153 -0.133206,0.0765 -0.245381,0.1785 -0.112174,0.0956 -0.182284,0.21674 -0.0701,0.12113 -0.0701,0.27413 0,0.13387 0.0701,0.24224 0.07011,0.10837 0.168262,0.21675 0.105164,0.102 0.224349,0.21675 0.126197,0.10837 0.224349,0.24862 0.105164,0.13387 0.175273,0.30599 0.07011,0.17213 0.07011,0.40162 0,0.15937 -0.07712,0.36338 -0.07011,0.19761 -0.196305,0.40161 -0.126197,0.204 -0.30147,0.39524 -0.168261,0.19126 -0.364567,0.34425 -0.189294,0.14663 -0.399622,0.23587 -0.210327,0.0956 -0.406632,0.0956 -0.217339,0 -0.385601,-0.10838 -0.168261,-0.10837 -0.168261,-0.32511 0,-0.14663 0.07712,-0.26776 0.07712,-0.12749 0.189294,-0.24224 0.112175,-0.11475 0.245382,-0.22312 0.140219,-0.10838 0.252393,-0.21675 0.112174,-0.10837 0.189295,-0.22312 0.07712,-0.12112 0.07712,-0.255 0,-0.18487 -0.14723,-0.37612 -0.140218,-0.19762 -0.315491,-0.40161 -0.175272,-0.21038 -0.322502,-0.42712 -0.140218,-0.21675 -0.140218,-0.43987 0,-0.27412 0.161251,-0.57374 0.161251,-0.306 0.413644,-0.55462 0.252393,-0.255 0.567884,-0.42075 0.31549,-0.16574 0.623971,-0.16574 0.245381,0 0.420654,0.13387 0.175273,0.13387 0.175273,0.36337 z"
         style="font-style:normal;font-variant:normal;font-weight:normal;font-stretch:normal;font-size:6.8458px;line-height:1.15;font-family:Chewy;-inkscape-font-specification:'Chewy, Normal';font-variant-ligatures:normal;font-variant-caps:normal;font-variant-numeric:normal;font-variant-east-asian:normal;letter-spacing:-0.171145px;stroke-width:0.171145"
         id="path1807" />
      <path
         d="m 92.872078,221.96382 q 0,0.21675 -0.154239,0.42712 -0.14723,0.204 -0.378589,0.36975 -0.22435,0.15937 -0.483754,0.26137 -0.259403,0.0956 -0.476741,0.0956 -0.371578,0 -0.666037,-0.16575 -0.287446,-0.17212 -0.483752,-0.43349 -0.196306,-0.26137 -0.301469,-0.57375 -0.09815,-0.31874 -0.09815,-0.61835 0,-0.31875 0.09815,-0.68213 0.09816,-0.36336 0.294458,-0.66936 0.203317,-0.306 0.504786,-0.51 0.308479,-0.20399 0.729134,-0.20399 0.238371,0 0.455709,0.0765 0.217338,0.0701 0.378589,0.204 0.161251,0.13387 0.259404,0.31874 0.09816,0.18488 0.09816,0.41437 0,0.29962 -0.140219,0.56099 -0.140218,0.26137 -0.371577,0.45262 -0.23136,0.19125 -0.532829,0.31238 -0.301469,0.11474 -0.616961,0.12749 0.02804,0.18488 0.161251,0.26775 0.140218,0.0829 0.329512,0.0829 0.14022,0 0.273426,-0.0638 0.133208,-0.0638 0.259404,-0.14024 0.126197,-0.0829 0.245381,-0.14663 0.126197,-0.0637 0.252393,-0.0637 0.140219,0 0.252394,0.0829 0.112173,0.0829 0.112173,0.21674 z m -1.135767,-1.56185 q 0,-0.0829 -0.04908,-0.17213 -0.04908,-0.0892 -0.15424,-0.0892 -0.15424,0 -0.259404,0.0765 -0.105163,0.0701 -0.175272,0.18488 -0.07011,0.10837 -0.112175,0.23587 -0.03506,0.1275 -0.04206,0.23588 0.09816,-0.0192 0.231359,-0.051 0.140218,-0.0318 0.259404,-0.0829 0.126197,-0.0574 0.210328,-0.14024 0.09114,-0.0829 0.09114,-0.19763 z"
         style="font-style:normal;font-variant:normal;font-weight:normal;font-stretch:normal;font-size:6.8458px;line-height:1.15;font-family:Chewy;-inkscape-font-specification:'Chewy, Normal';font-variant-ligatures:normal;font-variant-caps:normal;font-variant-numeric:normal;font-variant-east-asian:normal;letter-spacing:-0.171145px;stroke-width:0.171145"
         id="path1809" />
      <path
         d="m 95.412832,220.71434 q -0.09816,0.007 -0.168262,-0.0128 -0.07011,-0.0255 -0.140218,-0.051 -0.0631,-0.0255 -0.126196,-0.0446 -0.0631,-0.0255 -0.140218,-0.0192 -0.140218,0.007 -0.252393,0.0701 -0.105164,0.0638 -0.196306,0.15938 -0.08413,0.0956 -0.147229,0.21674 -0.0631,0.11475 -0.09815,0.2295 -0.02104,0.0765 -0.03506,0.23587 -0.007,0.153 -0.007,0.3315 -0.007,0.18486 -0.007,0.35061 0,0.16575 -0.01402,0.26137 -0.007,0.10201 -0.03506,0.24226 -0.02804,0.13387 -0.09114,0.25499 -0.05608,0.12112 -0.15424,0.204 -0.09815,0.0829 -0.252393,0.0829 -0.119186,0 -0.210327,-0.0638 -0.08413,-0.0638 -0.14723,-0.16575 -0.05608,-0.10837 -0.09815,-0.24862 -0.03506,-0.14025 -0.05608,-0.28687 -0.02104,-0.153 -0.03506,-0.306 -0.007,-0.153 -0.01402,-0.28687 0,-0.14025 0,-0.255 0.007,-0.11475 0.007,-0.18487 -0.007,-0.22313 -0.02804,-0.44624 -0.01402,-0.22951 -0.01402,-0.45262 0,-0.14025 0.01402,-0.31238 0.01402,-0.17212 0.07712,-0.31874 0.0631,-0.153 0.182284,-0.255 0.126196,-0.10199 0.343534,-0.10199 0.119186,0 0.203317,0.0701 0.08413,0.0701 0.133207,0.17212 0.05608,0.10201 0.08413,0.21675 0.02804,0.11475 0.03506,0.21037 0.168263,-0.24862 0.37859,-0.40162 0.210327,-0.15937 0.546851,-0.17212 0.168262,-0.007 0.329512,0.0319 0.168263,0.0318 0.301469,0.11475 0.140218,0.0765 0.224349,0.204 0.09114,0.1275 0.09816,0.29962 0.01402,0.20399 -0.133206,0.31238 -0.14723,0.10837 -0.357557,0.11474 z"
         style="font-style:normal;font-variant:normal;font-weight:normal;font-stretch:normal;font-size:6.8458px;line-height:1.15;font-family:Chewy;-inkscape-font-specification:'Chewy, Normal';font-variant-ligatures:normal;font-variant-caps:normal;font-variant-numeric:normal;font-variant-east-asian:normal;letter-spacing:-0.171145px;stroke-width:0.171145"
         id="path1811" />
      <path
         d="m 98.900058,221.27533 q 0,0.35062 -0.07712,0.69487 -0.07712,0.34424 -0.259404,0.61836 -0.182283,0.26775 -0.490763,0.4335 -0.301469,0.16575 -0.757178,0.16575 -0.448699,0 -0.750168,-0.15938 -0.301469,-0.16574 -0.483752,-0.43349 -0.175273,-0.26774 -0.252393,-0.60562 -0.07011,-0.33787 -0.07011,-0.68849 0,-0.3825 0.09816,-0.75861 0.02104,-0.102 0.07712,-0.2805 0.0631,-0.18487 0.15424,-0.357 0.09816,-0.17849 0.217338,-0.30599 0.126197,-0.1275 0.273426,-0.1275 0.140218,0 0.224348,0.0701 0.08413,0.0701 0.133208,0.1785 0.04908,0.10199 0.0631,0.22311 0.01402,0.11475 0.01402,0.21038 0,0.14662 -0.02804,0.28687 -0.02104,0.14025 -0.04908,0.2805 -0.02804,0.19125 -0.05608,0.38249 -0.02104,0.19125 -0.02104,0.3825 0,0.0956 0.007,0.21674 0.01402,0.11475 0.05609,0.22313 0.04206,0.10837 0.119185,0.18486 0.07712,0.0701 0.217338,0.0701 0.182284,0 0.287447,-0.0892 0.112175,-0.0893 0.161252,-0.22313 0.05608,-0.13387 0.0701,-0.28687 0.01402,-0.153 0.01402,-0.2805 0,-0.28049 -0.04206,-0.54824 -0.04206,-0.27412 -0.07712,-0.55461 -0.007,-0.0319 -0.007,-0.0893 0,-0.0956 0.03506,-0.19124 0.03506,-0.0956 0.09816,-0.17212 0.0631,-0.0765 0.15424,-0.12112 0.09114,-0.051 0.203316,-0.051 0.154241,0 0.273426,0.102 0.119186,0.0956 0.196306,0.255 0.08413,0.153 0.133206,0.35062 0.05609,0.19125 0.08413,0.3825 0.03506,0.18486 0.04206,0.35061 0.01402,0.16575 0.01402,0.26137 z"
         style="font-style:normal;font-variant:normal;font-weight:normal;font-stretch:normal;font-size:6.8458px;line-height:1.15;font-family:Chewy;-inkscape-font-specification:'Chewy, Normal';font-variant-ligatures:normal;font-variant-caps:normal;font-variant-numeric:normal;font-variant-east-asian:normal;letter-spacing:-0.171145px;stroke-width:0.171145"
         id="path1813" />
      <path
         d="m 100.16483,222.76069 q 0,0.102 -0.0631,0.26137 -0.0561,0.15937 -0.147231,0.31237 -0.08413,0.153 -0.196306,0.26137 -0.112175,0.10837 -0.217338,0.10837 -0.140218,0 -0.140218,-0.1275 0,-0.0765 0.03506,-0.14662 0.03506,-0.0701 0.07712,-0.14025 0.04206,-0.0637 0.07712,-0.13387 0.03506,-0.0637 0.03506,-0.1275 -0.105163,0.0638 -0.224349,0.0638 -0.161251,0 -0.273426,-0.11475 -0.112174,-0.11474 -0.112174,-0.25499 0,-0.204 0.147229,-0.32513 0.147229,-0.12749 0.371579,-0.12749 0.252392,0 0.441687,0.12112 0.189297,0.12112 0.189297,0.36974 z"
         style="font-style:normal;font-variant:normal;font-weight:normal;font-stretch:normal;font-size:6.8458px;line-height:1.15;font-family:Chewy;-inkscape-font-specification:'Chewy, Normal';font-variant-ligatures:normal;font-variant-caps:normal;font-variant-numeric:normal;font-variant-east-asian:normal;letter-spacing:-0.171145px;stroke-width:0.171145"
         id="path1815" />
      <path
         d="m 104.07551,218.62337 q 0,0.14662 -0.10516,0.25499 -0.0982,0.10838 -0.23837,0.1785 -0.1262,0.0701 -0.25941,0.153 -0.1332,0.0765 -0.24538,0.1785 -0.11217,0.0956 -0.18228,0.21674 -0.0701,0.12113 -0.0701,0.27413 0,0.13387 0.0701,0.24224 0.0701,0.10837 0.16826,0.21675 0.10516,0.102 0.22435,0.21675 0.12619,0.10837 0.22435,0.24862 0.10516,0.13387 0.17527,0.30599 0.0701,0.17213 0.0701,0.40162 0,0.15937 -0.0771,0.36338 -0.0701,0.19761 -0.1963,0.40161 -0.1262,0.204 -0.30147,0.39524 -0.16827,0.19126 -0.36457,0.34425 -0.1893,0.14663 -0.39962,0.23587 -0.21033,0.0956 -0.40664,0.0956 -0.21733,0 -0.38559,-0.10838 -0.16827,-0.10837 -0.16827,-0.32511 0,-0.14663 0.0771,-0.26776 0.0771,-0.12749 0.1893,-0.24224 0.11217,-0.11475 0.24538,-0.22312 0.14022,-0.10838 0.25239,-0.21675 0.11218,-0.10837 0.1893,-0.22312 0.0771,-0.12112 0.0771,-0.255 0,-0.18487 -0.14723,-0.37612 -0.14022,-0.19762 -0.31549,-0.40161 -0.17528,-0.21038 -0.3225,-0.42712 -0.14022,-0.21675 -0.14022,-0.43987 0,-0.27412 0.16125,-0.57374 0.16125,-0.306 0.41364,-0.55462 0.25239,-0.255 0.56788,-0.42075 0.3155,-0.16574 0.62397,-0.16574 0.24539,0 0.42066,0.13387 0.17527,0.13387 0.17527,0.36337 z"
         style="font-style:normal;font-variant:normal;font-weight:normal;font-stretch:normal;font-size:6.8458px;line-height:1.15;font-family:Chewy;-inkscape-font-specification:'Chewy, Normal';font-variant-ligatures:normal;font-variant-caps:normal;font-variant-numeric:normal;font-variant-east-asian:normal;letter-spacing:-0.171145px;stroke-width:0.171145"
         id="path1817" />
      <path
         d="m 107.07899,221.96382 q 0,0.21675 -0.15424,0.42712 -0.14723,0.204 -0.37859,0.36975 -0.22435,0.15937 -0.48376,0.26137 -0.2594,0.0956 -0.47674,0.0956 -0.37158,0 -0.66604,-0.16575 -0.28744,-0.17212 -0.48375,-0.43349 -0.1963,-0.26137 -0.30147,-0.57375 -0.0982,-0.31874 -0.0982,-0.61835 0,-0.31875 0.0982,-0.68213 0.0982,-0.36336 0.29446,-0.66936 0.20332,-0.306 0.50479,-0.51 0.30848,-0.20399 0.72913,-0.20399 0.23837,0 0.45571,0.0765 0.21734,0.0701 0.37859,0.204 0.16125,0.13387 0.2594,0.31874 0.0982,0.18488 0.0982,0.41437 0,0.29962 -0.14021,0.56099 -0.14022,0.26137 -0.37158,0.45262 -0.23136,0.19125 -0.53283,0.31238 -0.30147,0.11474 -0.61696,0.12749 0.028,0.18488 0.16125,0.26775 0.14022,0.0829 0.32951,0.0829 0.14022,0 0.27343,-0.0638 0.1332,-0.0638 0.2594,-0.14024 0.1262,-0.0829 0.24538,-0.14663 0.1262,-0.0637 0.2524,-0.0637 0.14021,0 0.25239,0.0829 0.11217,0.0829 0.11217,0.21674 z m -1.13577,-1.56185 q 0,-0.0829 -0.0491,-0.17213 -0.0491,-0.0892 -0.15424,-0.0892 -0.15424,0 -0.25941,0.0765 -0.10516,0.0701 -0.17527,0.18488 -0.0701,0.10837 -0.11217,0.23587 -0.0351,0.1275 -0.0421,0.23588 0.0982,-0.0192 0.23136,-0.051 0.14021,-0.0318 0.2594,-0.0829 0.1262,-0.0574 0.21033,-0.14024 0.0911,-0.0829 0.0911,-0.19763 z"
         style="font-style:normal;font-variant:normal;font-weight:normal;font-stretch:normal;font-size:6.8458px;line-height:1.15;font-family:Chewy;-inkscape-font-specification:'Chewy, Normal';font-variant-ligatures:normal;font-variant-caps:normal;font-variant-numeric:normal;font-variant-east-asian:normal;letter-spacing:-0.171145px;stroke-width:0.171145"
         id="path1819" />
      <path
         d="m 109.17805,223.27705 q -0.11918,0 -0.18929,-0.10199 -0.0701,-0.0956 -0.10517,-0.22313 -0.0351,-0.1275 -0.0491,-0.25499 -0.007,-0.13388 -0.007,-0.20401 0,-0.19124 0.021,-0.38249 0.028,-0.19125 0.0561,-0.38249 0.0351,-0.19125 0.0561,-0.3825 0.028,-0.19124 0.028,-0.38249 0,-0.0765 -0.007,-0.16575 -0.007,-0.0893 -0.0351,-0.16575 -0.021,-0.0829 -0.0771,-0.13387 -0.0561,-0.051 -0.14722,-0.051 -0.0631,0 -0.14022,0.0956 -0.0771,0.0892 -0.14723,0.21037 -0.0631,0.11475 -0.11218,0.23587 -0.0421,0.11475 -0.0421,0.17213 0,0.14024 0,0.28687 0.007,0.14024 0.007,0.28687 v 0.36974 q -0.007,0.11474 -0.021,0.23588 -0.014,0.12112 -0.0421,0.23586 -0.021,0.11475 -0.0631,0.22312 -0.0421,0.10201 -0.11217,0.18488 -0.0631,0.0765 -0.15424,0.12749 -0.0911,0.051 -0.21734,0.051 -0.14022,0 -0.23136,-0.0829 -0.0911,-0.0829 -0.14723,-0.21037 -0.0561,-0.13387 -0.0841,-0.29325 -0.021,-0.16574 -0.0351,-0.31874 -0.007,-0.15938 -0.007,-0.28687 0.007,-0.13388 0.007,-0.21037 v -0.29962 q 0,-0.24226 -0.014,-0.47812 -0.007,-0.23587 -0.007,-0.47175 0,-0.1275 0,-0.32512 0.007,-0.19762 0.0561,-0.38249 0.0491,-0.19125 0.16125,-0.32513 0.11218,-0.13387 0.32951,-0.13387 0.0982,0 0.17528,0.0574 0.0771,0.0574 0.1332,0.14025 0.0631,0.0829 0.0982,0.17849 0.0421,0.0956 0.0631,0.16575 0.0701,-0.0892 0.16125,-0.17212 0.0982,-0.0829 0.21734,-0.14662 0.11919,-0.0638 0.26642,-0.10201 0.14723,-0.0382 0.33652,-0.0382 0.35756,0 0.55386,0.15937 0.20332,0.153 0.29446,0.38888 0.0982,0.22949 0.11919,0.49724 0.021,0.26774 0.021,0.48449 0,0.10838 -0.021,0.32513 -0.021,0.21036 -0.0701,0.47173 -0.0421,0.25501 -0.11919,0.52913 -0.0771,0.26774 -0.18228,0.49086 -0.10517,0.22313 -0.25239,0.36338 -0.14022,0.14024 -0.32251,0.14024 z"
         style="font-style:normal;font-variant:normal;font-weight:normal;font-stretch:normal;font-size:6.8458px;line-height:1.15;font-family:Chewy;-inkscape-font-specification:'Chewy, Normal';font-variant-ligatures:normal;font-variant-caps:normal;font-variant-numeric:normal;font-variant-east-asian:normal;letter-spacing:-0.171145px;stroke-width:0.171145"
         id="path1821" />
      <path
         d="m 113.33832,222.19969 q 0,0.11475 -0.014,0.29962 -0.007,0.18488 -0.0561,0.36338 -0.0491,0.17212 -0.15424,0.29962 -0.10517,0.12749 -0.29446,0.12749 -0.25941,0 -0.39962,-0.15299 -0.14022,-0.153 -0.13321,-0.3825 -0.22435,0.17849 -0.5118,0.2805 -0.28044,0.102 -0.57489,0.102 -0.20332,0 -0.3856,-0.0892 -0.18229,-0.0893 -0.3225,-0.2295 -0.14022,-0.14025 -0.22435,-0.31237 -0.0841,-0.17849 -0.0841,-0.35062 0,-0.306 0.20331,-0.53549 0.21033,-0.2295 0.5118,-0.38887 0.30147,-0.16575 0.63799,-0.26137 0.34354,-0.0956 0.60995,-0.1275 0,-0.0318 0,-0.0574 0.007,-0.0255 0.007,-0.0574 0,-0.19762 -0.11919,-0.31875 -0.11918,-0.12112 -0.33652,-0.12112 -0.17527,0 -0.30147,0.0574 -0.12619,0.051 -0.23837,0.12113 -0.11217,0.0638 -0.22435,0.12112 -0.11217,0.051 -0.25239,0.051 -0.15424,0 -0.26642,-0.0893 -0.10516,-0.0892 -0.10516,-0.22949 0,-0.21038 0.13321,-0.3825 0.14022,-0.17213 0.34353,-0.28687 0.21033,-0.12112 0.4487,-0.18488 0.24538,-0.0701 0.4487,-0.0701 0.18929,0 0.37859,0.0446 0.18929,0.0382 0.35755,0.12751 0.16827,0.0829 0.30147,0.21036 0.14022,0.12113 0.22435,0.28688 0.1262,0.23587 0.20332,0.50362 0.0771,0.26137 0.11918,0.54186 0.0421,0.27412 0.0561,0.55462 0.014,0.27412 0.014,0.53549 z m -1.12174,-0.20399 -0.021,-0.4335 q -0.014,0 -0.028,0 -0.014,-0.007 -0.028,-0.007 -0.0911,0 -0.23136,0.0446 -0.13321,0.0382 -0.2594,0.11474 -0.1262,0.0701 -0.21734,0.15938 -0.0841,0.0893 -0.0841,0.18487 0,0.0893 0.0701,0.12112 0.0701,0.0318 0.16125,0.0318 0.15424,0 0.32951,-0.0701 0.17527,-0.0765 0.30848,-0.14662 z"
         style="font-style:normal;font-variant:normal;font-weight:normal;font-stretch:normal;font-size:6.8458px;line-height:1.15;font-family:Chewy;-inkscape-font-specification:'Chewy, Normal';font-variant-ligatures:normal;font-variant-caps:normal;font-variant-numeric:normal;font-variant-east-asian:normal;letter-spacing:-0.171145px;stroke-width:0.171145"
         id="path1823" />
      <path
         d="m 115.57761,223.27705 q -0.11918,0 -0.18929,-0.10199 -0.0701,-0.0956 -0.10517,-0.22313 -0.0351,-0.1275 -0.0491,-0.25499 -0.007,-0.13388 -0.007,-0.20401 0,-0.19124 0.021,-0.38249 0.028,-0.19125 0.0561,-0.38249 0.0351,-0.19125 0.0561,-0.3825 0.028,-0.19124 0.028,-0.38249 0,-0.0765 -0.007,-0.16575 -0.007,-0.0893 -0.0351,-0.16575 -0.021,-0.0829 -0.0771,-0.13387 -0.0561,-0.051 -0.14723,-0.051 -0.0631,0 -0.14022,0.0956 -0.0771,0.0892 -0.14722,0.21037 -0.0631,0.11475 -0.11218,0.23587 -0.0421,0.11475 -0.0421,0.17213 0,0.14024 0,0.28687 0.007,0.14024 0.007,0.28687 v 0.36974 q -0.007,0.11474 -0.021,0.23588 -0.014,0.12112 -0.0421,0.23586 -0.021,0.11475 -0.0631,0.22312 -0.0421,0.10201 -0.11217,0.18488 -0.0631,0.0765 -0.15424,0.12749 -0.0911,0.051 -0.21734,0.051 -0.14022,0 -0.23136,-0.0829 -0.0911,-0.0829 -0.14723,-0.21037 -0.0561,-0.13387 -0.0841,-0.29325 -0.021,-0.16574 -0.0351,-0.31874 -0.007,-0.15938 -0.007,-0.28687 0.007,-0.13388 0.007,-0.21037 v -0.29962 q 0,-0.24226 -0.014,-0.47812 -0.007,-0.23587 -0.007,-0.47175 0,-0.1275 0,-0.32512 0.007,-0.19762 0.0561,-0.38249 0.0491,-0.19125 0.16125,-0.32513 0.11217,-0.13387 0.32951,-0.13387 0.0982,0 0.17528,0.0574 0.0771,0.0574 0.1332,0.14025 0.0631,0.0829 0.0981,0.17849 0.0421,0.0956 0.0631,0.16575 0.0701,-0.0892 0.16125,-0.17212 0.0982,-0.0829 0.21734,-0.14662 0.11919,-0.0638 0.26642,-0.10201 0.14722,-0.0382 0.33652,-0.0382 0.35756,0 0.55386,0.15937 0.20332,0.153 0.29446,0.38888 0.0982,0.22949 0.11918,0.49724 0.021,0.26774 0.021,0.48449 0,0.10838 -0.021,0.32513 -0.021,0.21036 -0.0701,0.47173 -0.0421,0.25501 -0.11918,0.52913 -0.0771,0.26774 -0.18228,0.49086 -0.10517,0.22313 -0.2524,0.36338 -0.14022,0.14024 -0.3225,0.14024 z"
         style="font-style:normal;font-variant:normal;font-weight:normal;font-stretch:normal;font-size:6.8458px;line-height:1.15;font-family:Chewy;-inkscape-font-specification:'Chewy, Normal';font-variant-ligatures:normal;font-variant-caps:normal;font-variant-numeric:normal;font-variant-east-asian:normal;letter-spacing:-0.171145px;stroke-width:0.171145"
         id="path1825" />
      <path
         d="m 119.93419,220.92471 q 0,0.32512 -0.014,0.65024 -0.007,0.32513 -0.0351,0.65024 -0.021,0.2805 -0.0561,0.59924 -0.0351,0.31875 -0.11218,0.63112 -0.0771,0.31875 -0.20332,0.60562 -0.12619,0.29325 -0.33652,0.51636 -0.20332,0.22313 -0.49777,0.357 -0.29446,0.13388 -0.70109,0.13388 -0.1893,0 -0.42767,-0.0574 -0.23136,-0.051 -0.44169,-0.153 -0.20331,-0.102 -0.35054,-0.25499 -0.14022,-0.14663 -0.14022,-0.34425 0,-0.14663 0.11217,-0.27412 0.11919,-0.12112 0.30147,-0.12112 0.11218,0 0.21033,0.0318 0.10516,0.0382 0.20332,0.0829 0.10516,0.0446 0.1963,0.0765 0.0981,0.0382 0.19631,0.0382 0.2594,0 0.43467,-0.12112 0.17528,-0.11475 0.28044,-0.29963 0.10516,-0.1785 0.15424,-0.39524 0.0561,-0.21037 0.0771,-0.40162 -0.14022,0.14662 -0.32951,0.204 -0.18229,0.051 -0.3856,0.051 -0.37158,0 -0.63099,-0.11475 -0.2594,-0.12112 -0.42065,-0.32512 -0.16125,-0.21037 -0.23837,-0.48449 -0.0771,-0.27412 -0.0771,-0.59286 0,-0.19763 0.0421,-0.44625 0.0491,-0.24862 0.14022,-0.50362 0.0911,-0.255 0.22435,-0.49724 0.14022,-0.24224 0.3225,-0.42712 0.18228,-0.18487 0.40663,-0.29962 0.23136,-0.11475 0.50479,-0.11475 0.26641,0 0.46973,0.14025 0.21033,0.14025 0.24538,0.39524 0.0771,-0.13387 0.20332,-0.26136 0.1262,-0.13388 0.30848,-0.13388 0.0982,0 0.16125,0.0892 0.0701,0.0893 0.10516,0.23587 0.0421,0.14025 0.0631,0.31237 0.021,0.16575 0.0281,0.3315 0.007,0.15937 0.007,0.29324 0,0.13387 0,0.19763 z m -1.06566,0.41437 q 0,-0.0956 -0.0351,-0.24862 -0.028,-0.153 -0.0911,-0.29325 -0.0561,-0.14025 -0.14723,-0.24224 -0.0911,-0.102 -0.21734,-0.102 -0.16125,0 -0.28744,0.102 -0.11919,0.10199 -0.20332,0.24862 -0.0841,0.14024 -0.13321,0.30599 -0.0421,0.15938 -0.0421,0.27412 0,0.0829 0.014,0.22313 0.014,0.14025 0.0561,0.27412 0.0491,0.13387 0.1262,0.22949 0.0771,0.0956 0.20332,0.0956 0.18929,0 0.32951,-0.0829 0.14022,-0.0829 0.23136,-0.21037 0.0982,-0.1275 0.14723,-0.2805 0.0491,-0.153 0.0491,-0.29324 z"
         style="font-style:normal;font-variant:normal;font-weight:normal;font-stretch:normal;font-size:6.8458px;line-height:1.15;font-family:Chewy;-inkscape-font-specification:'Chewy, Normal';font-variant-ligatures:normal;font-variant-caps:normal;font-variant-numeric:normal;font-variant-east-asian:normal;letter-spacing:-0.171145px;stroke-width:0.171145"
         id="path1827" />
      <path
         d="m 121.26206,222.76069 q 0,0.102 -0.0631,0.26137 -0.0561,0.15937 -0.14723,0.31237 -0.0841,0.153 -0.19631,0.26137 -0.11217,0.10837 -0.21734,0.10837 -0.14021,0 -0.14021,-0.1275 0,-0.0765 0.035,-0.14662 0.0351,-0.0701 0.0771,-0.14025 0.0421,-0.0637 0.0771,-0.13387 0.035,-0.0637 0.035,-0.1275 -0.10516,0.0638 -0.22435,0.0638 -0.16125,0 -0.27342,-0.11475 -0.11218,-0.11474 -0.11218,-0.25499 0,-0.204 0.14723,-0.32513 0.14723,-0.12749 0.37158,-0.12749 0.25239,0 0.44169,0.12112 0.18929,0.12112 0.18929,0.36974 z"
         style="font-style:normal;font-variant:normal;font-weight:normal;font-stretch:normal;font-size:6.8458px;line-height:1.15;font-family:Chewy;-inkscape-font-specification:'Chewy, Normal';font-variant-ligatures:normal;font-variant-caps:normal;font-variant-numeric:normal;font-variant-east-asian:normal;letter-spacing:-0.171145px;stroke-width:0.171145"
         id="path1829" />
      <path
         d="m 125.17275,218.62337 q 0,0.14662 -0.10517,0.25499 -0.0982,0.10838 -0.23838,0.1785 -0.12619,0.0701 -0.25939,0.153 -0.13322,0.0765 -0.24539,0.1785 -0.11218,0.0956 -0.18228,0.21674 -0.0702,0.12113 -0.0702,0.27413 0,0.13387 0.0702,0.24224 0.0701,0.10837 0.16826,0.21675 0.10517,0.102 0.22435,0.21675 0.1262,0.10837 0.22435,0.24862 0.10516,0.13387 0.17527,0.30599 0.0701,0.17213 0.0701,0.40162 0,0.15937 -0.0771,0.36338 -0.0701,0.19761 -0.19631,0.40161 -0.1262,0.204 -0.30147,0.39524 -0.16826,0.19126 -0.36457,0.34425 -0.18929,0.14663 -0.39962,0.23587 -0.21032,0.0956 -0.40663,0.0956 -0.21734,0 -0.3856,-0.10838 -0.16827,-0.10837 -0.16827,-0.32511 0,-0.14663 0.0771,-0.26776 0.0771,-0.12749 0.1893,-0.24224 0.11217,-0.11475 0.24538,-0.22312 0.14022,-0.10838 0.2524,-0.21675 0.11217,-0.10837 0.18929,-0.22312 0.0771,-0.12112 0.0771,-0.255 0,-0.18487 -0.14723,-0.37612 -0.14022,-0.19762 -0.31549,-0.40161 -0.17528,-0.21038 -0.32251,-0.42712 -0.14022,-0.21675 -0.14022,-0.43987 0,-0.27412 0.16126,-0.57374 0.16125,-0.306 0.41364,-0.55462 0.25239,-0.255 0.56789,-0.42075 0.31549,-0.16574 0.62396,-0.16574 0.24539,0 0.42066,0.13387 0.17528,0.13387 0.17528,0.36337 z"
         style="font-style:normal;font-variant:normal;font-weight:normal;font-stretch:normal;font-size:6.8458px;line-height:1.15;font-family:Chewy;-inkscape-font-specification:'Chewy, Normal';font-variant-ligatures:normal;font-variant-caps:normal;font-variant-numeric:normal;font-variant-east-asian:normal;letter-spacing:-0.171145px;stroke-width:0.171145"
         id="path1831" />
      <path
         d="m 129.49427,220.99484 q 0,0.12112 0,0.3315 0,0.20399 -0.014,0.44623 -0.007,0.24225 -0.0421,0.49087 -0.035,0.24225 -0.11216,0.43987 -0.0702,0.19763 -0.18229,0.32512 -0.11218,0.1275 -0.28745,0.1275 -0.15424,0 -0.23837,-0.11475 -0.0771,-0.12112 -0.11217,-0.28049 -0.035,-0.15937 -0.0421,-0.32512 0,-0.16575 0,-0.26137 0,-0.28687 0.0211,-0.56099 0.021,-0.27413 0.021,-0.561 0,-0.0319 0,-0.11475 0,-0.0829 -0.0141,-0.16575 -0.014,-0.0829 -0.0491,-0.14662 -0.028,-0.0638 -0.0911,-0.0638 -0.12619,0 -0.20331,0.12112 -0.0771,0.11475 -0.1262,0.27412 -0.0491,0.15938 -0.0702,0.31875 -0.0211,0.153 -0.028,0.2295 -0.0141,0.0829 -0.028,0.24862 -0.007,0.16575 -0.0281,0.36337 -0.0141,0.19762 -0.0561,0.40799 -0.035,0.204 -0.0982,0.37613 -0.0561,0.16575 -0.14723,0.27412 -0.0911,0.10837 -0.22435,0.10837 -0.16826,0 -0.25941,-0.13387 -0.0911,-0.13388 -0.1332,-0.31238 -0.042,-0.17849 -0.0561,-0.36336 -0.007,-0.18488 -0.007,-0.28687 0,-0.10837 0,-0.21038 0.007,-0.10199 0.007,-0.21037 0,-0.0446 0,-0.14662 0,-0.102 -0.007,-0.22313 0,-0.12749 -0.0141,-0.26137 -0.007,-0.13387 -0.028,-0.24224 -0.021,-0.11475 -0.0631,-0.18487 -0.0421,-0.0701 -0.0982,-0.0701 -0.0911,0 -0.16826,0.10838 -0.0771,0.10199 -0.13321,0.24862 -0.0561,0.14024 -0.0911,0.28049 -0.028,0.14025 -0.028,0.20399 v 0.0382 q 0,0.30599 0.0421,0.59924 0.042,0.29325 0.042,0.59924 0,0.1785 -0.12619,0.3315 -0.1262,0.14662 -0.35054,0.14662 -0.16125,0 -0.26641,-0.10838 -0.10517,-0.11474 -0.17528,-0.29324 -0.0702,-0.17849 -0.11217,-0.38887 -0.035,-0.21674 -0.0491,-0.42074 -0.014,-0.21037 -0.0211,-0.37612 0,-0.17212 0,-0.255 0,-0.0956 -0.007,-0.2805 0,-0.18486 0.007,-0.40162 0.014,-0.21674 0.0421,-0.43987 0.0281,-0.22949 0.0911,-0.41436 0.0631,-0.18488 0.16126,-0.29962 0.10517,-0.12113 0.26641,-0.12113 0.18229,0 0.29447,0.0892 0.11918,0.0893 0.11918,0.26775 0,0.0382 -0.007,0.0765 0,0.0382 -0.007,0.0701 0.0771,-0.102 0.18929,-0.204 0.11218,-0.10838 0.23837,-0.19125 0.1332,-0.0893 0.28044,-0.14025 0.14723,-0.0574 0.29445,-0.0574 0.14023,0 0.25239,0.0701 0.11218,0.0701 0.19631,0.1785 0.0841,0.10199 0.14022,0.22311 0.0561,0.12113 0.0771,0.2295 0.07,-0.11475 0.16826,-0.2295 0.10517,-0.12112 0.22435,-0.21037 0.11919,-0.0892 0.25941,-0.14662 0.14722,-0.0574 0.30147,-0.0574 0.14722,0 0.25239,0.0956 0.10516,0.0956 0.18228,0.24863 0.0771,0.14662 0.11919,0.33786 0.0421,0.18487 0.0701,0.36975 0.028,0.17849 0.035,0.33786 0.007,0.153 0.007,0.24226 z"
         style="font-style:normal;font-variant:normal;font-weight:normal;font-stretch:normal;font-size:6.8458px;line-height:1.15;font-family:Chewy;-inkscape-font-specification:'Chewy, Normal';font-variant-ligatures:normal;font-variant-caps:normal;font-variant-numeric:normal;font-variant-east-asian:normal;letter-spacing:-0.171145px;stroke-width:0.171145"
         id="path1833" />
      <path
         d="m 132.76415,222.19969 q 0,0.11475 -0.014,0.29962 -0.007,0.18488 -0.0561,0.36338 -0.0491,0.17212 -0.15424,0.29962 -0.10516,0.12749 -0.29445,0.12749 -0.25941,0 -0.39963,-0.15299 -0.14021,-0.153 -0.13321,-0.3825 -0.22434,0.17849 -0.51179,0.2805 -0.28043,0.102 -0.5749,0.102 -0.20331,0 -0.38559,-0.0892 -0.18229,-0.0893 -0.32251,-0.2295 -0.14022,-0.14025 -0.22435,-0.31237 -0.0841,-0.17849 -0.0841,-0.35062 0,-0.306 0.20331,-0.53549 0.21033,-0.2295 0.51179,-0.38887 0.30147,-0.16575 0.638,-0.26137 0.34353,-0.0956 0.60994,-0.1275 0,-0.0318 0,-0.0574 0.007,-0.0255 0.007,-0.0574 0,-0.19762 -0.11918,-0.31875 -0.11918,-0.12112 -0.33653,-0.12112 -0.17527,0 -0.30147,0.0574 -0.1262,0.051 -0.23837,0.12113 -0.11217,0.0638 -0.22434,0.12112 -0.11218,0.051 -0.25239,0.051 -0.15425,0 -0.26642,-0.0893 -0.10517,-0.0892 -0.10517,-0.22949 0,-0.21038 0.13321,-0.3825 0.14022,-0.17213 0.34354,-0.28687 0.21033,-0.12112 0.4487,-0.18488 0.24538,-0.0701 0.44869,-0.0701 0.1893,0 0.37859,0.0446 0.18929,0.0382 0.35756,0.12751 0.16826,0.0829 0.30146,0.21036 0.14023,0.12113 0.22435,0.28688 0.1262,0.23587 0.20332,0.50362 0.0771,0.26137 0.11919,0.54186 0.0421,0.27412 0.0561,0.55462 0.0141,0.27412 0.0141,0.53549 z m -1.12174,-0.20399 -0.0211,-0.4335 q -0.014,0 -0.028,0 -0.0141,-0.007 -0.028,-0.007 -0.0911,0 -0.23136,0.0446 -0.13321,0.0382 -0.25941,0.11474 -0.12619,0.0701 -0.21733,0.15938 -0.0841,0.0893 -0.0841,0.18487 0,0.0893 0.0702,0.12112 0.0702,0.0318 0.16125,0.0318 0.15424,0 0.32951,-0.0701 0.17528,-0.0765 0.30849,-0.14662 z"
         style="font-style:normal;font-variant:normal;font-weight:normal;font-stretch:normal;font-size:6.8458px;line-height:1.15;font-family:Chewy;-inkscape-font-specification:'Chewy, Normal';font-variant-ligatures:normal;font-variant-caps:normal;font-variant-numeric:normal;font-variant-east-asian:normal;letter-spacing:-0.171145px;stroke-width:0.171145"
         id="path1835" />
      <path
         d="m 135.44512,220.71434 q -0.0982,0.007 -0.16825,-0.0128 -0.0702,-0.0255 -0.14022,-0.051 -0.0631,-0.0255 -0.1262,-0.0446 -0.0631,-0.0255 -0.14021,-0.0192 -0.14022,0.007 -0.2524,0.0701 -0.10517,0.0638 -0.19631,0.15938 -0.0841,0.0956 -0.14723,0.21674 -0.0631,0.11475 -0.0981,0.2295 -0.0211,0.0765 -0.035,0.23587 -0.007,0.153 -0.007,0.3315 -0.007,0.18486 -0.007,0.35061 0,0.16575 -0.014,0.26137 -0.007,0.10201 -0.035,0.24226 -0.028,0.13387 -0.0911,0.25499 -0.0561,0.12112 -0.15424,0.204 -0.0982,0.0829 -0.25239,0.0829 -0.11919,0 -0.21033,-0.0638 -0.0841,-0.0638 -0.14723,-0.16575 -0.0561,-0.10837 -0.0982,-0.24862 -0.035,-0.14025 -0.0561,-0.28687 -0.0211,-0.153 -0.035,-0.306 -0.007,-0.153 -0.0141,-0.28687 0,-0.14025 0,-0.255 0.007,-0.11475 0.007,-0.18487 -0.007,-0.22313 -0.028,-0.44624 -0.014,-0.22951 -0.014,-0.45262 0,-0.14025 0.014,-0.31238 0.014,-0.17212 0.0771,-0.31874 0.0631,-0.153 0.18227,-0.255 0.1262,-0.10199 0.34355,-0.10199 0.11918,0 0.20331,0.0701 0.0841,0.0701 0.1332,0.17212 0.0561,0.10201 0.0841,0.21675 0.028,0.11475 0.035,0.21037 0.16827,-0.24862 0.3786,-0.40162 0.21032,-0.15937 0.54685,-0.17212 0.16826,-0.007 0.32951,0.0319 0.16826,0.0318 0.30147,0.11475 0.14022,0.0765 0.22435,0.204 0.0911,0.1275 0.0982,0.29962 0.0141,0.20399 -0.1332,0.31238 -0.14724,0.10837 -0.35756,0.11474 z"
         style="font-style:normal;font-variant:normal;font-weight:normal;font-stretch:normal;font-size:6.8458px;line-height:1.15;font-family:Chewy;-inkscape-font-specification:'Chewy, Normal';font-variant-ligatures:normal;font-variant-caps:normal;font-variant-numeric:normal;font-variant-east-asian:normal;letter-spacing:-0.171145px;stroke-width:0.171145"
         id="path1837" />
      <path
         d="m 137.49512,223.32806 q -0.49778,0 -0.77821,-0.12113 -0.27343,-0.11475 -0.41365,-0.33149 -0.1332,-0.21676 -0.16125,-0.52275 -0.028,-0.30599 -0.028,-0.68212 0,-0.29962 0.021,-0.59924 0.0211,-0.306 0.0631,-0.65023 -0.0982,0 -0.15424,0.007 -0.0561,0 -0.0911,0 -0.22434,0 -0.38559,-0.0892 -0.16826,-0.0892 -0.16826,-0.27412 0,-0.11475 0.0981,-0.20401 0.0911,-0.0892 0.23837,-0.15299 0.14723,-0.0638 0.31549,-0.102 0.17527,-0.0382 0.32951,-0.051 0,-0.17849 0.028,-0.39524 0.028,-0.21675 0.0982,-0.40162 0.0771,-0.19125 0.20331,-0.31875 0.1262,-0.1275 0.32251,-0.1275 0.11217,0 0.1963,0.0638 0.0911,0.0574 0.14723,0.153 0.0561,0.0893 0.0841,0.204 0.028,0.11474 0.028,0.22311 0,0.12751 -0.0211,0.26138 -0.0211,0.13388 -0.0771,0.33149 0.11918,-0.0128 0.16125,-0.0128 0.0421,-0.007 0.0771,-0.007 0.11918,0 0.24538,0.0191 0.13321,0.0192 0.23837,0.0638 0.11218,0.0446 0.18228,0.12113 0.0702,0.0701 0.0702,0.17211 0,0.11476 -0.10516,0.204 -0.0982,0.0892 -0.25239,0.153 -0.15424,0.0638 -0.32951,0.102 -0.17527,0.0318 -0.32951,0.0446 -0.0421,0.26137 -0.0631,0.4845 -0.0141,0.21674 -0.035,0.43987 -0.014,0.10837 -0.028,0.22312 -0.007,0.10837 -0.007,0.22312 0,0.0829 0.007,0.19762 0.007,0.10837 0.0491,0.21038 0.0421,0.10199 0.1332,0.17849 0.0911,0.0701 0.25239,0.0701 0.0982,0 0.20332,-0.0128 0.10517,-0.0192 0.21033,-0.0192 0.18229,0 0.25941,0.11475 0.0841,0.11474 0.0841,0.29324 0,0.13387 -0.0911,0.23587 -0.0841,0.0956 -0.21733,0.153 -0.13322,0.0638 -0.30147,0.0956 -0.16126,0.0318 -0.30849,0.0318 z"
         style="font-style:normal;font-variant:normal;font-weight:normal;font-stretch:normal;font-size:6.8458px;line-height:1.15;font-family:Chewy;-inkscape-font-specification:'Chewy, Normal';font-variant-ligatures:normal;font-variant-caps:normal;font-variant-numeric:normal;font-variant-east-asian:normal;letter-spacing:-0.171145px;stroke-width:0.171145"
         id="path1839" />
      <path
         style="opacity:0.997647;fill:#b0052e;fill-opacity:1;stroke:#ffffff;stroke-width:0.481043;stroke-linecap:round;stroke-linejoin:round;stroke-miterlimit:4;stroke-dasharray:none;stroke-opacity:1"
         d="m 91.285414,197.23037 c 0,0 3.272403,0.90901 3.272403,4.36321"
         id="path1841" />
      <path
         style="opacity:0.997647;fill:#b0052e;fill-opacity:1;stroke:#ffffff;stroke-width:0.481043;stroke-linecap:round;stroke-linejoin:round;stroke-miterlimit:4;stroke-dasharray:none;stroke-opacity:1"
         d="m 94.466918,202.59348 c 0,0 -0.227251,1.3635 -0.409049,1.5453"
         id="path1843" />
      <path
         style="opacity:0.997647;fill:none;fill-opacity:1;stroke:#ffffff;stroke-width:0.481043;stroke-linecap:round;stroke-linejoin:round;stroke-miterlimit:4;stroke-dasharray:none;stroke-opacity:1"
         d="m 105.78398,200.18463 c 0,0 2.22706,0.3636 2.77245,2.68155"
         id="path1845" />
      <path
         id="path1847"
         d="m 120.91885,200.18463 c 0,0 2.22705,0.3636 2.77245,2.68155"
         style="opacity:0.997647;fill:none;fill-opacity:1;stroke:#ffffff;stroke-width:0.481043;stroke-linecap:round;stroke-linejoin:round;stroke-miterlimit:4;stroke-dasharray:none;stroke-opacity:1" />
      <path
         style="opacity:0.997647;fill:none;fill-opacity:1;stroke:#ffffff;stroke-width:0.481043;stroke-linecap:round;stroke-linejoin:round;stroke-miterlimit:4;stroke-dasharray:none;stroke-opacity:1"
         d="m 131.8916,200.57177 c 0,0 1.18912,0 1.92829,0.51421"
         id="path1849" />
      <path
         style="opacity:0.997647;fill:none;fill-opacity:1;stroke:#ffffff;stroke-width:0.481043;stroke-linecap:round;stroke-linejoin:round;stroke-miterlimit:4;stroke-dasharray:none;stroke-opacity:1"
         d="m 139.87152,199.0711 c 0,0 0.8181,0.31815 0.52267,1.20443"
         id="path1851" />
      <path
         style="opacity:0.997647;fill:none;fill-opacity:1;stroke:#ffffff;stroke-width:0.481043;stroke-linecap:round;stroke-linejoin:round;stroke-miterlimit:4;stroke-dasharray:none;stroke-opacity:1"
         d="m 138.84889,205.13869 c 0,0 1.93163,1.0908 1.24988,2.74972"
         id="path1853" />
      <path
         style="opacity:0.997647;fill:none;fill-opacity:1;stroke:#ffffff;stroke-width:0.481043;stroke-linecap:round;stroke-linejoin:round;stroke-miterlimit:4;stroke-dasharray:none;stroke-opacity:1"
         d="m 139.73517,208.47926 c 0,0 -0.47723,1.02263 -0.65903,1.04535"
         id="path1855" />
    </g>
  </g>
</svg>
