<?xml version="1.0" encoding="UTF-8" standalone="no"?>
<svg
   xmlns:dc="http://purl.org/dc/elements/1.1/"
   xmlns:cc="http://creativecommons.org/ns#"
   xmlns:rdf="http://www.w3.org/1999/02/22-rdf-syntax-ns#"
   xmlns:svg="http://www.w3.org/2000/svg"
   xmlns="http://www.w3.org/2000/svg"
   xmlns:sodipodi="http://sodipodi.sourceforge.net/DTD/sodipodi-0.dtd"
   xmlns:inkscape="http://www.inkscape.org/namespaces/inkscape"
   width="512"
   height="512"
   viewBox="0 0 135.46666 135.46667"
   version="1.1"
   id="svg8"
   inkscape:version="1.0.2 (1.0.2+r75+1)"
   sodipodi:docname="Theory.svg">
  <defs
     id="defs2" />
  <sodipodi:namedview
     id="base"
     pagecolor="#ffffff"
     bordercolor="#666666"
     borderopacity="1.0"
     inkscape:pageopacity="0.0"
     inkscape:pageshadow="2"
     inkscape:zoom="0.98994949"
     inkscape:cx="250.17865"
     inkscape:cy="259.61159"
     inkscape:document-units="mm"
     inkscape:current-layer="layer1"
     showgrid="false"
     units="px"
     showborder="true"
     inkscape:showpageshadow="false"
     inkscape:window-width="1600"
     inkscape:window-height="846"
     inkscape:window-x="0"
     inkscape:window-y="28"
     inkscape:window-maximized="1"
     inkscape:document-rotation="0" />
  <metadata
     id="metadata5">
    <rdf:RDF>
      <cc:Work
         rdf:about="">
        <dc:format>image/svg+xml</dc:format>
        <dc:type
           rdf:resource="http://purl.org/dc/dcmitype/StillImage" />
        <dc:title />
      </cc:Work>
    </rdf:RDF>
  </metadata>
  <g
     inkscape:label="Layer 1"
     inkscape:groupmode="layer"
     id="layer1"
     transform="translate(0,-161.53332)">
    <path
       id="path830"
       style="fill:#4d4d4d;stroke-width:2"
       d="m 70.769336,213.20833 a 9.5873392,9.5873392 0 0 0 -9.527584,9.58753 9.5873392,9.5873392 0 0 0 9.58701,9.58701 9.5873392,9.5873392 0 0 0 9.587529,-9.58701 9.5873392,9.5873392 0 0 0 -9.587529,-9.58753 9.5873392,9.5873392 0 0 0 -0.05943,0 z m 0.05943,5.88543 a 3.7017899,3.7017899 0 0 1 3.7021,3.7021 3.7017899,3.7017899 0 0 1 -3.7021,3.70158 3.7017899,3.7017899 0 0 1 -3.701582,-3.70158 3.7017899,3.7017899 0 0 1 3.701582,-3.7021 z"
       inkscape:export-xdpi="96"
       inkscape:export-ydpi="96" />
    <rect
       style="fill:#4d4d4d;stroke-width:1.80451"
       id="rect837"
       width="3.9134414"
       height="23.894854"
       x="68.872299"
       y="192.43996"
       inkscape:export-xdpi="96"
       inkscape:export-ydpi="96" />
    <rect
       style="fill:#4d4d4d;stroke-width:1.40414"
       id="rect839"
       width="1.9289559"
       height="29.352459"
       x="69.86454"
       y="230.04295"
       inkscape:export-xdpi="96"
       inkscape:export-ydpi="96" />
    <rect
       style="fill:#4d4d4d;stroke-width:2.00611"
       id="rect841"
       width="3.9202335"
       height="29.480768"
       x="211.5502"
       y="109.90586"
       transform="matrix(0.68568857,0.72789504,-0.74773968,0.663992,0,0)"
       inkscape:export-xdpi="96"
       inkscape:export-ydpi="96" />
    <rect
       style="fill:#4d4d4d;stroke-width:1.81083"
       id="rect843"
       width="3.5435822"
       height="26.574007"
       x="115.15334"
       y="210.07153"
       transform="matrix(-0.67422288,0.73852793,0.73729164,0.6755746,0,0)"
       inkscape:export-xdpi="96"
       inkscape:export-ydpi="96" />
    <rect
       style="fill:#4d4d4d;stroke-width:1.40414"
       id="rect847"
       width="1.9289559"
       height="29.352459"
       x="-118.86885"
       y="167.35985"
       transform="rotate(-47.031849)"
       inkscape:export-xdpi="96"
       inkscape:export-ydpi="96" />
    <rect
       style="fill:#4d4d4d;stroke-width:1.40414"
       id="rect849"
       width="1.9289559"
       height="29.352459"
       x="-215.77451"
       y="63.325371"
       transform="matrix(-0.68159172,-0.73173269,-0.73173269,0.68159172,0,0)"
       inkscape:export-xdpi="96"
       inkscape:export-ydpi="96" />
    <circle
       style="fill:#4d4d4d;stroke-width:2"
       id="path851"
       cx="41.386345"
       cy="199.9073"
       r="4.1305156"
       inkscape:export-xdpi="96"
       inkscape:export-ydpi="96" />
    <circle
       style="fill:#4d4d4d;stroke-width:2"
       id="circle855"
       cx="70.906189"
       cy="259.47495"
       r="4.1305156"
       inkscape:export-xdpi="96"
       inkscape:export-ydpi="96" />
    <circle
       style="fill:#4d4d4d;stroke-width:2"
       id="circle857"
       cx="99.803123"
       cy="200.46991"
       r="4.1305156"
       inkscape:export-xdpi="96"
       inkscape:export-ydpi="96" />
    <path
       id="circle859"
       style="fill:#4d4d4d;stroke-width:12.6469"
       d="M 154.32812 304.00391 A 26.119047 26.119047 0 0 0 128.20898 330.12305 A 26.119047 26.119047 0 0 0 154.32812 356.24219 A 26.119047 26.119047 0 0 0 180.44727 330.12305 A 26.119047 26.119047 0 0 0 154.32812 304.00391 z M 154.32812 321.27734 A 8.8463262 8.8463262 0 0 1 163.17383 330.12305 A 8.8463262 8.8463262 0 0 1 154.32812 338.9707 A 8.8463262 8.8463262 0 0 1 145.48242 330.12305 A 8.8463262 8.8463262 0 0 1 154.32812 321.27734 z "
       transform="matrix(0.26458333,0,0,0.26458333,0,161.53332)"
       inkscape:export-xdpi="96"
       inkscape:export-ydpi="96" />
    <path
       id="circle861"
       style="fill:#4d4d4d;stroke-width:12.6469"
       d="M 374.54102 303.6543 A 26.119047 26.119047 0 0 0 348.62305 329.77344 A 26.119047 26.119047 0 0 0 374.74219 355.89258 A 26.119047 26.119047 0 0 0 400.86133 329.77344 A 26.119047 26.119047 0 0 0 374.74219 303.6543 A 26.119047 26.119047 0 0 0 374.54102 303.6543 z M 374.60156 320.92773 A 8.8463262 8.8463262 0 0 1 374.74219 320.92773 A 8.8463262 8.8463262 0 0 1 383.58789 329.77344 A 8.8463262 8.8463262 0 0 1 374.74219 338.61914 A 8.8463262 8.8463262 0 0 1 365.89648 329.77344 A 8.8463262 8.8463262 0 0 1 374.60156 320.92773 z "
       transform="matrix(0.26458333,0,0,0.26458333,0,161.53332)"
       inkscape:export-xdpi="96"
       inkscape:export-ydpi="96" />
    <path
       id="circle863"
       style="fill:#4d4d4d;stroke-width:12.6469"
       d="M 267.94727 76.042969 A 26.119047 26.119047 0 0 0 241.82812 102.16211 A 26.119047 26.119047 0 0 0 267.94727 128.28125 A 26.119047 26.119047 0 0 0 294.06641 102.16211 A 26.119047 26.119047 0 0 0 267.94727 76.042969 z M 267.94727 93.316406 A 8.8463262 8.8463262 0 0 1 276.79492 102.16211 A 8.8463262 8.8463262 0 0 1 267.94727 111.00977 A 8.8463262 8.8463262 0 0 1 259.10156 102.16211 A 8.8463262 8.8463262 0 0 1 267.94727 93.316406 z "
       transform="matrix(0.26458333,0,0,0.26458333,0,161.53332)"
       inkscape:export-xdpi="96"
       inkscape:export-ydpi="96" />
  </g>
</svg>
